<svg width="135" height="95" viewBox="0 0 135 95" fill="none" xmlns="http://www.w3.org/2000/svg">
<mask id="mask0_402_439" style="mask-type:luminance" maskUnits="userSpaceOnUse" x="0" y="0" width="135" height="95">
<path d="M135 0H0V95H135V0Z" fill="white"/>
</mask>
<g mask="url(#mask0_402_439)">
<path fill-rule="evenodd" clip-rule="evenodd" d="M78.5689 26.2616C77.2896 26.2616 76.1113 26.4993 75.0019 26.9695C73.8872 27.4396 72.9265 28.0894 72.1143 28.8818C71.3022 29.6901 70.6546 30.6304 70.1928 31.6975C69.7098 32.7805 69.4763 33.9268 69.4763 35.1419C69.4763 36.3569 69.7098 37.5033 70.1928 38.5756C70.6546 39.6586 71.3022 40.5936 72.1143 41.3913C72.9265 42.1837 73.8872 42.8282 75.0019 43.3143C76.1113 43.7844 77.2896 44.0116 78.5689 44.0116C79.8269 44.0116 81.0212 43.7844 82.1199 43.3143C83.2293 42.8282 84.1901 42.1837 85.0022 41.3755C85.8196 40.562 86.4831 39.6269 86.9608 38.5598C87.4279 37.4874 87.6774 36.3569 87.6774 35.1419C87.6774 33.9268 87.4279 32.7963 86.9608 31.7292C86.4831 30.6621 85.8196 29.7218 85.0022 28.8977C84.1901 28.0894 83.2293 27.4396 82.1199 26.9695C81.0212 26.4993 79.8269 26.2616 78.5689 26.2616ZM87.6774 46.6635V46.1616C86.3663 47.1654 84.9544 47.9419 83.431 48.4755C81.9182 49.0249 80.294 49.2837 78.5689 49.2837C74.572 49.2837 71.1377 47.9102 68.3138 45.1421C67.7034 44.5451 67.1567 43.927 66.6736 43.2826C68.3138 40.9687 69.2799 38.1847 69.2799 35.1736C69.2799 32.1518 68.2979 29.352 66.6577 27.0382C67.1354 26.3725 67.6875 25.7439 68.3138 25.1258C71.1377 22.3735 74.572 21 78.5689 21C82.534 21 85.9523 22.3735 88.8186 25.1258C91.6584 27.894 93.065 31.2432 93.065 35.1419V46.6635C93.065 47.3767 92.7996 48.0053 92.2901 48.523C91.7593 49.0249 91.1276 49.2837 90.3951 49.2837C89.6308 49.2837 88.9885 49.0249 88.4577 48.523C87.9428 48.0053 87.6774 47.3767 87.6774 46.6635Z" fill="#FFFAFA"/>
<path fill-rule="evenodd" clip-rule="evenodd" d="M81.7063 61.2439C81.0747 61.2439 80.4908 61.376 79.96 61.5978C79.4132 61.825 78.9514 62.1367 78.5533 62.5382C78.1393 62.9291 77.8208 63.394 77.6085 63.9117C77.375 64.4505 77.2582 64.9999 77.2582 65.5969C77.2582 66.178 77.375 66.7485 77.6085 67.2662C77.8208 67.7998 78.1393 68.2488 78.5533 68.6397C78.9514 69.0253 79.4132 69.3687 79.96 69.5959C80.4908 69.823 81.0747 69.934 81.7063 69.934C82.3167 69.934 82.9006 69.823 83.4314 69.5959C83.9781 69.3687 84.4399 69.0253 84.838 68.6397C85.2361 68.2329 85.5705 67.7839 85.8041 67.2662C86.0323 66.7485 86.1491 66.178 86.1491 65.5969C86.1491 64.9999 86.0323 64.4505 85.8041 63.9328C85.5705 63.394 85.2361 62.9449 84.838 62.554C84.4399 62.1525 83.9781 61.825 83.4314 61.5978C82.9006 61.376 82.3167 61.2439 81.7063 61.2439ZM86.1491 71.2282V70.9852C85.5175 71.4712 84.8221 71.8569 84.0737 72.1157C83.3306 72.3746 82.5344 72.5067 81.7063 72.5067C79.7477 72.5067 78.0703 71.841 76.6796 70.4834C75.2995 69.1416 74.6201 67.5039 74.6201 65.5969C74.6201 63.6898 75.2995 62.0521 76.6796 60.6945C78.0703 59.3527 79.7477 58.687 81.7063 58.687C83.6278 58.687 85.3211 59.3527 86.7118 60.6945C88.1078 62.0521 88.7872 63.6898 88.7872 65.5969V71.2282C88.7872 71.5822 88.6545 71.878 88.405 72.1369C88.1396 72.3746 87.8424 72.5067 87.4761 72.5067C87.1099 72.5067 86.7967 72.3746 86.5313 72.1369C86.2818 71.878 86.1491 71.5822 86.1491 71.2282Z" fill="#FFFAFA"/>
<path fill-rule="evenodd" clip-rule="evenodd" d="M91.0115 58.6711H91.59V56.0984C91.59 55.7604 91.7227 55.4487 91.9722 55.2057C92.2376 54.9468 92.5561 54.8359 92.917 54.8359C93.2833 54.8359 93.5965 54.9468 93.8459 55.2057C94.1273 55.4487 94.244 55.7604 94.244 56.0984V58.6711H95.8205C96.1868 58.6711 96.484 58.8032 96.7335 59.0409C96.9989 59.2998 97.1157 59.6115 97.1157 59.9496C97.1157 60.3194 96.9989 60.631 96.7335 60.874C96.484 61.117 96.1868 61.2438 95.8205 61.2438H94.244V67.4563C94.244 69.1098 95.0933 69.9181 96.7866 69.9181C97.1316 69.9181 97.4501 70.0449 97.6942 70.2879C97.9437 70.5467 98.0764 70.8373 98.0764 71.1965C98.0764 71.5504 97.9437 71.8568 97.6942 72.1157C97.4501 72.3587 97.1316 72.4908 96.7866 72.4908C93.3151 72.4908 91.59 70.8056 91.59 67.4563V61.2438H91.0115C90.6452 61.2438 90.348 61.117 90.0985 60.874C89.8331 60.631 89.7163 60.3194 89.7163 59.9496C89.7163 59.6115 89.8331 59.2998 90.0985 59.0409C90.348 58.8032 90.6452 58.6711 91.0115 58.6711Z" fill="#FFFAFA"/>
<path fill-rule="evenodd" clip-rule="evenodd" d="M100.565 71.2124V59.9813C100.565 59.6273 100.682 59.3209 100.948 59.0779C101.197 58.8191 101.51 58.7029 101.877 58.7029C102.243 58.7029 102.556 58.8191 102.821 59.0779C103.071 59.3209 103.204 59.6273 103.219 59.9813V71.2124C103.204 71.5663 103.071 71.878 102.821 72.1368C102.556 72.3746 102.243 72.5066 101.877 72.5066C101.51 72.5066 101.197 72.3746 100.948 72.1368C100.682 71.878 100.565 71.5663 100.565 71.2124Z" fill="#FFFAFA"/>
<path fill-rule="evenodd" clip-rule="evenodd" d="M103.453 56.3732C103.453 56.8117 103.289 57.1656 102.986 57.4562C102.689 57.7467 102.323 57.9105 101.877 57.9105C101.447 57.9105 101.08 57.7467 100.783 57.4562C100.481 57.1656 100.332 56.8117 100.332 56.3732C100.332 55.9506 100.481 55.5966 100.783 55.3061C101.08 55.0155 101.447 54.8676 101.877 54.8676C102.323 54.8676 102.689 55.0155 102.986 55.3061C103.289 55.5966 103.453 55.9506 103.453 56.3732Z" fill="#FFFAFA"/>
<path fill-rule="evenodd" clip-rule="evenodd" d="M112.509 72.5067C111.946 72.5067 111.564 72.2795 111.352 71.8252L106.007 60.4832C105.943 60.3036 105.906 60.1292 105.906 59.9655C105.906 59.7859 105.943 59.6274 106.007 59.4636C106.076 59.2998 106.155 59.1731 106.272 59.0621C106.405 58.93 106.537 58.8508 106.702 58.7663C106.856 58.7187 107.036 58.687 107.217 58.687C107.45 58.687 107.668 58.7346 107.864 58.8508C108.082 58.9617 108.247 59.1255 108.363 59.321L112.509 68.122L116.644 59.3368C116.888 58.8984 117.27 58.687 117.785 58.687C117.971 58.687 118.151 58.7187 118.316 58.7663C118.465 58.8508 118.618 58.93 118.73 59.0621C118.847 59.1731 118.948 59.2998 119.017 59.4636C119.08 59.6274 119.112 59.7859 119.112 59.9655C119.112 60.1451 119.08 60.3194 118.995 60.4832L113.671 71.8252C113.438 72.2795 113.04 72.5067 112.509 72.5067Z" fill="#FFFAFA"/>
<path fill-rule="evenodd" clip-rule="evenodd" d="M126.941 61.2439C126.315 61.2439 125.731 61.376 125.2 61.5978C124.653 61.825 124.192 62.1367 123.794 62.5382C123.38 62.9291 123.061 63.394 122.843 63.9117C122.615 64.4505 122.498 64.9999 122.498 65.5969C122.498 66.178 122.615 66.7485 122.843 67.2662C123.061 67.7998 123.38 68.2488 123.794 68.6397C124.192 69.0253 124.653 69.3687 125.2 69.5959C125.731 69.823 126.315 69.934 126.941 69.934C127.557 69.934 128.136 69.823 128.672 69.5959C129.218 69.3687 129.68 69.0253 130.078 68.6397C130.476 68.2329 130.811 67.7839 131.039 67.2662C131.273 66.7485 131.389 66.178 131.389 65.5969C131.389 64.9999 131.273 64.4505 131.039 63.9328C130.811 63.394 130.476 62.9449 130.078 62.554C129.68 62.1525 129.218 61.825 128.672 61.5978C128.136 61.376 127.557 61.2439 126.941 61.2439ZM131.389 71.2282V70.9852C130.758 71.4712 130.062 71.8569 129.314 72.1157C128.571 72.3746 127.775 72.5067 126.941 72.5067C124.988 72.5067 123.311 71.841 121.915 70.4834C120.54 69.1416 119.86 67.5039 119.86 65.5969C119.86 63.6898 120.54 62.0521 121.915 60.6945C123.311 59.3527 124.988 58.687 126.941 58.687C128.868 58.687 130.561 59.3527 131.952 60.6945C133.348 62.0521 134.027 63.6898 134.027 65.5969V71.2282C134.027 71.5822 133.895 71.878 133.645 72.1369C133.38 72.3746 133.083 72.5067 132.716 72.5067C132.35 72.5067 132.037 72.3746 131.772 72.1369C131.522 71.878 131.389 71.5822 131.389 71.2282Z" fill="#FFFAFA"/>
<path fill-rule="evenodd" clip-rule="evenodd" d="M54.8106 21.0317C62.8257 21.0317 69.3121 27.3446 69.3121 35.1736C69.3121 42.992 62.8257 49.3208 54.8106 49.3208C46.7849 49.3208 40.3145 42.992 40.3145 35.1736C40.3145 27.3446 46.7849 21.0317 54.8106 21.0317ZM54.8106 26.325C59.8055 26.325 63.8873 30.2871 63.8873 35.1736C63.8873 40.0443 59.8055 44.0275 54.8106 44.0275C49.7999 44.0275 45.7392 40.0443 45.7392 35.1736C45.7392 30.2871 49.7999 26.325 54.8106 26.325Z" fill="#FFFAFA"/>
<path fill-rule="evenodd" clip-rule="evenodd" d="M17.4368 72.3744H16.3062C15.9771 72.3744 15.6958 72.0997 15.6958 71.7616V59.3208C15.6958 58.9774 15.9771 58.7027 16.3062 58.7027H20.7702C21.0675 58.7027 21.3647 58.7186 21.6673 58.782L21.7151 58.8031C21.9964 58.8665 22.2618 58.9457 22.5113 59.062C22.7767 59.1729 23.0421 59.2997 23.2756 59.4635L23.3075 59.4793C23.541 59.6431 23.7374 59.8015 23.9391 59.997C24.1355 60.1925 24.3213 60.4038 24.4858 60.6468C24.6345 60.8739 24.7831 61.1169 24.8999 61.3758C25.0166 61.6347 25.1016 61.9094 25.1653 62.1999C25.2183 62.4905 25.2502 62.781 25.2502 63.0716C25.2502 63.378 25.2183 63.6738 25.1653 63.9485L25.1493 64.0119C25.0856 64.2866 25.0007 64.5296 24.8999 64.7884C24.7831 65.0473 24.6345 65.3062 24.4858 65.5333C24.3213 65.7605 24.1355 65.9665 23.9391 66.162V66.1778C23.7374 66.3733 23.5092 66.537 23.2756 66.6955C23.0261 66.8593 22.7767 66.9861 22.5113 67.1023C22.2459 67.2132 21.9645 67.2977 21.6673 67.3611C21.3647 67.4087 21.0675 67.4404 20.7702 67.4404H18.0472V71.7616C18.0472 72.0997 17.7659 72.3744 17.4368 72.3744ZM7.14988 58.4597C11.115 58.4597 14.3157 61.5977 14.3157 65.4699C14.3157 69.3369 11.115 72.459 7.14988 72.459C3.20073 72.459 0 69.3369 0 65.4699C0 61.5977 3.20073 58.4597 7.14988 58.4597ZM7.14988 60.7736C9.80389 60.7736 11.9589 62.8761 11.9589 65.4699C11.9589 68.0743 9.80389 70.161 7.14988 70.161C4.49588 70.161 2.35675 68.0743 2.35675 65.4699C2.35675 62.8761 4.49588 60.7736 7.14988 60.7736ZM8.87499 57.0545C8.82721 57.1021 8.75821 57.1496 8.67859 57.213C8.59366 57.2658 8.50873 57.3292 8.42911 57.3768L8.37603 57.3926C8.28049 57.4402 8.16371 57.4877 8.04694 57.5036L7.97793 57.5247C7.88239 57.5405 7.76561 57.5564 7.64884 57.5564H7.26666C6.91633 57.5564 6.65093 57.2817 6.65093 56.9383C6.65093 56.8432 6.66686 56.7428 6.71994 56.6478C6.98534 56.1934 7.23481 55.792 7.53206 55.3535C7.64884 55.1897 7.78154 55.0154 7.89831 54.8675C7.96201 54.7882 8.04694 54.709 8.14779 54.6403C8.22741 54.5769 8.32826 54.5135 8.46096 54.4501C8.57774 54.3973 8.71044 54.3498 8.84314 54.3181C8.97584 54.2864 9.10854 54.2864 9.25716 54.2864H9.92066C10.271 54.2864 10.5364 54.5452 10.5364 54.8833C10.5364 55.0312 10.4833 55.1739 10.3665 55.2901L8.92276 56.9859L8.87499 57.0545ZM61.5782 58.7027H62.5283C62.7937 58.7027 63.0379 58.8824 63.1069 59.1254C64.9647 63.2512 66.8066 67.377 68.6484 71.5186C68.7971 71.825 68.6484 72.1843 68.33 72.3111C68.2503 72.3427 68.1654 72.3586 68.0858 72.3586L67.5868 72.3744C67.4382 72.3744 67.2684 72.3427 67.1038 72.2952C66.9552 72.2635 66.8066 72.1843 66.6579 72.0997L66.6261 72.068C66.5093 71.9888 66.3925 71.8937 66.3076 71.7933C66.1908 71.6824 66.1112 71.5345 66.0422 71.3919L65.1664 69.432H58.9401L58.0802 71.3919C58.0112 71.5345 57.9316 71.6666 57.8148 71.7933C57.714 71.9096 57.5813 72.0205 57.4486 72.0997L57.4008 72.1367C57.2681 72.216 57.1354 72.2635 57.0027 72.3111C56.8381 72.3427 56.6842 72.3744 56.5197 72.3744H56.0207C55.6757 72.3744 55.3944 72.0997 55.3944 71.7616C55.3944 71.6666 55.4262 71.5662 55.474 71.4869L61.0155 59.0778C61.1164 58.8507 61.3499 58.7027 61.5782 58.7027ZM59.9699 67.1181H64.1366L62.0453 62.4746L59.9699 67.1181ZM44.4599 65.5333C44.4599 65.7605 44.4758 65.9665 44.5076 66.162C44.5448 66.3733 44.5766 66.5687 44.6403 66.7642C44.6934 66.9702 44.773 67.1657 44.842 67.3453C44.927 67.5407 45.0225 67.7151 45.1234 67.8788V67.8947C45.2242 68.0743 45.341 68.2486 45.4737 68.3965C45.5905 68.5603 45.7232 68.7029 45.8718 68.8509C46.0204 68.9776 46.169 69.1256 46.3336 69.2365C46.4981 69.3527 46.668 69.4637 46.8485 69.5799C47.0289 69.675 47.2147 69.7701 47.3952 69.8546H47.427C47.5969 69.9338 47.7933 69.9972 47.9791 70.0448C48.1914 70.0976 48.3931 70.1451 48.6054 70.1768C48.8071 70.1927 49.0247 70.2085 49.253 70.2085C49.5184 70.2085 49.7679 70.1927 50.0014 70.161C50.235 70.1293 50.4632 70.0606 50.6968 69.9972C50.9462 69.918 51.1639 69.8229 51.3762 69.7225C51.5938 69.6274 51.7902 69.5112 51.9919 69.3844C52.0556 69.3369 52.1246 69.2999 52.2096 69.2682C52.2732 69.2365 52.3582 69.2048 52.4219 69.189L52.4537 69.1731C52.5227 69.1573 52.5864 69.1414 52.6554 69.1414C52.7404 69.1256 52.82 69.1256 52.9049 69.1256C53.0217 69.1256 53.1544 69.1256 53.2499 69.1573C53.3826 69.1731 53.4994 69.2048 53.6003 69.2524C53.7011 69.2999 53.802 69.3527 53.8816 69.4161L53.9187 69.432C53.9983 69.4954 54.0674 69.5429 54.1311 69.6116L54.216 69.7067C54.4655 69.9338 54.4655 70.3195 54.216 70.5466V70.5625C53.8816 70.8741 53.5366 71.133 53.1703 71.376L53.1172 71.3919C52.7563 71.619 52.3741 71.825 51.976 71.9888C51.5461 72.1684 51.1108 72.2952 50.649 72.3744C50.1978 72.459 49.736 72.5065 49.253 72.5065C48.7753 72.5065 48.2922 72.459 47.8251 72.3744C47.3633 72.2794 46.9175 72.1367 46.4822 71.9571C46.0363 71.7775 45.6382 71.5503 45.272 71.3073C44.8898 71.0643 44.5448 70.7896 44.2263 70.4674H44.2104C43.8972 70.1451 43.6 69.8018 43.3505 69.4478C43.101 69.078 42.8834 68.6871 42.687 68.2645C42.5012 67.8313 42.3685 67.3928 42.2677 66.9227C42.1721 66.4684 42.119 66.0035 42.119 65.5333C42.119 65.0631 42.1721 64.593 42.2677 64.1387C42.3685 63.6738 42.5012 63.2353 42.687 62.8127C42.8834 62.3954 43.101 62.0044 43.3505 61.6347L43.3823 61.5977C43.6318 61.2437 43.9131 60.9056 44.2104 60.6151L44.2635 60.5781C44.5766 60.2717 44.9057 59.997 45.272 59.7699C45.6382 59.5268 46.0363 59.2997 46.4822 59.1254C46.9175 58.9299 47.3633 58.782 47.8251 58.6869H47.8782C48.3241 58.6076 48.7912 58.5601 49.253 58.5601C49.736 58.5601 50.1978 58.6076 50.6649 58.6869C51.1108 58.7661 51.562 58.914 51.976 59.0937C52.39 59.2521 52.7881 59.4635 53.1703 59.7065C53.5366 59.9495 53.8816 60.2242 54.216 60.5306C54.4495 60.7577 54.4655 61.1486 54.216 61.3758L54.1311 61.455C53.9665 61.6188 53.786 61.7297 53.5843 61.8248C53.4835 61.8777 53.3667 61.9094 53.2499 61.9252C53.1385 61.9569 53.0217 61.9727 52.9049 61.9727C52.7404 61.9727 52.5705 61.9411 52.4219 61.8935H52.39C52.2414 61.8407 52.1087 61.7773 51.9919 61.698L51.9601 61.6822C51.7743 61.5501 51.5779 61.4392 51.3762 61.3388C51.1639 61.2437 50.9303 61.1645 50.7127 61.08C50.5004 61.0166 50.2509 60.969 50.0173 60.9215C49.7679 60.8898 49.5184 60.8739 49.253 60.8739C49.0247 60.8739 48.8071 60.8898 48.6054 60.9056C48.3931 60.9373 48.1914 60.9849 47.9791 61.0324C47.7774 61.08 47.5969 61.1486 47.3952 61.2279C47.2147 61.3071 47.0289 61.4075 46.8485 61.5026L46.8166 61.5184C46.6521 61.6188 46.4822 61.7297 46.3336 61.8407C46.169 61.9569 46.0204 62.0995 45.8718 62.2316C45.7232 62.3742 45.5905 62.5222 45.4737 62.6859C45.341 62.8286 45.2242 63.0082 45.1234 63.1878L45.1074 63.2036C45.0066 63.3621 44.927 63.5417 44.842 63.7213C44.773 63.8957 44.6934 64.0911 44.6403 64.3024L44.6244 64.3183C44.5766 64.5137 44.5448 64.7092 44.5076 64.8994C44.4758 65.0948 44.4599 65.3062 44.4599 65.5333ZM39.534 72.3744H38.4193C38.0743 72.3744 37.8089 72.0997 37.8089 71.7616V59.3208C37.8089 58.9774 38.0743 58.7027 38.4193 58.7027H39.534C39.8791 58.7027 40.1657 58.9774 40.1657 59.3208V71.7616C40.1657 72.0997 39.8791 72.3744 39.534 72.3744ZM25.6164 60.4038V59.3208C25.6164 58.9774 25.8818 58.7027 26.2269 58.7027H35.7494C36.0998 58.7027 36.3811 58.9774 36.3811 59.3208V60.4038C36.3811 60.7419 36.0998 61.0166 35.7494 61.0166H32.1665V71.7616C32.1665 72.0997 31.8852 72.3744 31.5349 72.3744H30.4255C30.0752 72.3744 29.8098 72.0997 29.8098 71.7616V61.0166H26.2269C25.8818 61.0166 25.6164 60.7419 25.6164 60.4038ZM20.7702 65.1582C21.0675 65.1582 21.3329 65.1107 21.5983 64.9998C21.731 64.9522 21.8478 64.8835 21.9645 64.8201C22.0654 64.7409 22.1822 64.6564 22.2777 64.5613L22.3149 64.5296C22.3945 64.4503 22.4635 64.35 22.5272 64.2549C22.6121 64.1545 22.6758 64.0277 22.7289 63.8957C22.7767 63.7847 22.8297 63.6527 22.8457 63.51C22.8775 63.378 22.8934 63.2353 22.8934 63.0874C22.8934 62.7969 22.8457 62.5222 22.7289 62.2791C22.6758 62.1524 22.6121 62.0203 22.5272 61.9094C22.4635 61.809 22.3786 61.7139 22.2777 61.6188C22.1822 61.5184 22.0813 61.4392 21.9645 61.3547C21.8478 61.2913 21.731 61.2279 21.5983 61.1645C21.4656 61.1169 21.3329 61.08 21.2002 61.0483C21.0675 61.0166 20.9189 61.0166 20.7702 61.0166H18.0472V65.1582H20.7702Z" fill="#FFFAFA"/>
</g>
</svg>
