<svg width="183" height="25" viewBox="0 0 183 25" fill="none" xmlns="http://www.w3.org/2000/svg">
<path fill-rule="evenodd" clip-rule="evenodd" d="M111.557 9.50627C110.695 9.50627 109.898 9.68659 109.173 9.98953C108.427 10.2997 107.796 10.7252 107.253 11.2734C106.687 11.8071 106.252 12.4418 105.963 13.1487C105.644 13.8844 105.484 14.6345 105.484 15.4496C105.484 16.2429 105.644 17.0219 105.963 17.7288C106.252 18.4573 106.687 19.0703 107.253 19.6041C107.796 20.1306 108.427 20.5994 109.173 20.9096C109.898 21.2197 110.695 21.3712 111.557 21.3712C112.391 21.3712 113.188 21.2197 113.913 20.9096C114.659 20.5994 115.29 20.1306 115.833 19.6041C116.377 19.0487 116.833 18.4356 117.152 17.7288C117.464 17.0219 117.623 16.2429 117.623 15.4496C117.623 14.6345 117.464 13.8844 117.152 13.1775C116.833 12.4418 116.377 11.8288 115.833 11.295C115.29 10.7469 114.659 10.2997 113.913 9.98953C113.188 9.68659 112.391 9.50627 111.557 9.50627ZM117.623 23.1383V22.8065C116.761 23.4701 115.811 23.9966 114.79 24.35C113.775 24.7035 112.688 24.8838 111.557 24.8838C108.883 24.8838 106.593 23.975 104.694 22.1213C102.81 20.2893 101.882 18.0533 101.882 15.4496C101.882 12.8458 102.81 10.6098 104.694 8.75615C106.593 6.92412 108.883 6.01532 111.557 6.01532C114.181 6.01532 116.493 6.92412 118.392 8.75615C120.298 10.6098 121.225 12.8458 121.225 15.4496V23.1383C121.225 23.6216 121.044 24.0255 120.703 24.3789C120.341 24.7035 119.935 24.8838 119.435 24.8838C118.935 24.8838 118.507 24.7035 118.145 24.3789C117.804 24.0255 117.623 23.6216 117.623 23.1383Z" fill="#FFFAFA"/>
<path fill-rule="evenodd" clip-rule="evenodd" d="M124.261 5.99382H125.051V2.48122C125.051 2.01961 125.232 1.59406 125.573 1.26228C125.935 0.908852 126.37 0.757385 126.863 0.757385C127.363 0.757385 127.79 0.908852 128.131 1.26228C128.515 1.59406 128.675 2.01961 128.675 2.48122V5.99382H130.827C131.327 5.99382 131.733 6.17413 132.074 6.49871C132.436 6.85213 132.595 7.27768 132.595 7.73929C132.595 8.24418 132.436 8.66973 132.074 9.00152C131.733 9.3333 131.327 9.50641 130.827 9.50641H128.675V17.9886C128.675 20.2461 129.834 21.3497 132.146 21.3497C132.617 21.3497 133.052 21.5228 133.385 21.8546C133.726 22.208 133.907 22.6047 133.907 23.0952C133.907 23.5784 133.726 23.9967 133.385 24.3502C133.052 24.682 132.617 24.8623 132.146 24.8623C127.406 24.8623 125.051 22.5614 125.051 17.9886V9.50641H124.261C123.761 9.50641 123.355 9.3333 123.014 9.00152C122.652 8.66973 122.493 8.24418 122.493 7.73929C122.493 7.27768 122.652 6.85213 123.014 6.49871C123.355 6.17413 123.761 5.99382 124.261 5.99382Z" fill="#FFFAFA"/>
<path fill-rule="evenodd" clip-rule="evenodd" d="M137.306 23.1168V7.78256C137.306 7.2993 137.465 6.88097 137.827 6.54918C138.168 6.19576 138.596 6.03708 139.096 6.03708C139.596 6.03708 140.023 6.19576 140.386 6.54918C140.726 6.88097 140.908 7.2993 140.929 7.78256V23.1168C140.908 23.6 140.726 24.0256 140.386 24.379C140.023 24.7036 139.596 24.8839 139.096 24.8839C138.596 24.8839 138.168 24.7036 137.827 24.379C137.465 24.0256 137.306 23.6 137.306 23.1168Z" fill="#FFFAFA"/>
<path fill-rule="evenodd" clip-rule="evenodd" d="M141.248 2.85625C141.248 3.45491 141.024 3.93816 140.61 4.33486C140.205 4.73156 139.705 4.95515 139.096 4.95515C138.509 4.95515 138.009 4.73156 137.603 4.33486C137.19 3.93816 136.987 3.45491 136.987 2.85625C136.987 2.27923 137.19 1.79598 137.603 1.39928C138.009 1.00258 138.509 0.800629 139.096 0.800629C139.705 0.800629 140.205 1.00258 140.61 1.39928C141.024 1.79598 141.248 2.27923 141.248 2.85625Z" fill="#FFFAFA"/>
<path fill-rule="evenodd" clip-rule="evenodd" d="M153.613 24.8838C152.845 24.8838 152.323 24.5736 152.033 23.9533L144.735 8.46764C144.648 8.22241 144.597 7.98439 144.597 7.7608C144.597 7.51556 144.648 7.29918 144.735 7.07559C144.829 6.85199 144.938 6.67889 145.097 6.52742C145.278 6.3471 145.46 6.23891 145.684 6.12351C145.894 6.0586 146.141 6.01532 146.387 6.01532C146.706 6.01532 147.003 6.08023 147.271 6.23891C147.569 6.39038 147.793 6.61398 147.953 6.88085L153.613 18.8972L159.258 6.90248C159.592 6.30383 160.113 6.01532 160.816 6.01532C161.07 6.01532 161.317 6.0586 161.541 6.12351C161.744 6.23891 161.954 6.3471 162.106 6.52742C162.266 6.67889 162.404 6.85199 162.498 7.07559C162.585 7.29918 162.628 7.51556 162.628 7.7608C162.628 8.00603 162.585 8.24405 162.469 8.46764L155.2 23.9533C154.881 24.5736 154.337 24.8838 153.613 24.8838Z" fill="#FFFAFA"/>
<path fill-rule="evenodd" clip-rule="evenodd" d="M173.319 9.50624C172.464 9.50624 171.666 9.68656 170.942 9.9895C170.195 10.2996 169.565 10.7252 169.021 11.2734C168.456 11.8071 168.021 12.4418 167.724 13.1487C167.412 13.8844 167.253 14.6345 167.253 15.4495C167.253 16.2429 167.412 17.0219 167.724 17.7287C168.021 18.4572 168.456 19.0703 169.021 19.604C169.565 20.1306 170.195 20.5994 170.942 20.9095C171.666 21.2197 172.464 21.3712 173.319 21.3712C174.159 21.3712 174.949 21.2197 175.681 20.9095C176.428 20.5994 177.058 20.1306 177.602 19.604C178.145 19.0487 178.602 18.4356 178.914 17.7287C179.232 17.0219 179.392 16.2429 179.392 15.4495C179.392 14.6345 179.232 13.8844 178.914 13.1775C178.602 12.4418 178.145 11.8287 177.602 11.295C177.058 10.7468 176.428 10.2996 175.681 9.9895C174.949 9.68656 174.159 9.50624 173.319 9.50624ZM179.392 23.1383V22.8065C178.529 23.4701 177.58 23.9966 176.558 24.35C175.544 24.7034 174.456 24.8838 173.319 24.8838C170.652 24.8838 168.362 23.9749 166.456 22.1213C164.579 20.2893 163.651 18.0533 163.651 15.4495C163.651 12.8457 164.579 10.6098 166.456 8.75612C168.362 6.92409 170.652 6.01529 173.319 6.01529C175.949 6.01529 178.261 6.92409 180.16 8.75612C182.066 10.6098 182.994 12.8457 182.994 15.4495V23.1383C182.994 23.6215 182.813 24.0254 182.472 24.3789C182.11 24.7034 181.704 24.8838 181.204 24.8838C180.704 24.8838 180.276 24.7034 179.914 24.3789C179.573 24.0254 179.392 23.6215 179.392 23.1383Z" fill="#FFFAFA"/>
<path fill-rule="evenodd" clip-rule="evenodd" d="M23.8071 24.7041H22.2635C21.8141 24.7041 21.43 24.329 21.43 23.8674V6.88147C21.43 6.41264 21.8141 6.03758 22.2635 6.03758H28.3584C28.7642 6.03758 29.1701 6.05922 29.5832 6.14577L29.6484 6.17462C30.0325 6.26117 30.3949 6.36937 30.7355 6.52804C31.0978 6.67951 31.4602 6.85262 31.7791 7.07621L31.8226 7.09785C32.1414 7.32144 32.4096 7.53782 32.685 7.8047C32.9531 8.07157 33.2068 8.36007 33.4314 8.69186C33.6344 9.00201 33.8373 9.33379 33.9967 9.68721C34.1562 10.0406 34.2721 10.4157 34.3591 10.8124C34.4316 11.2091 34.475 11.6058 34.475 12.0025C34.475 12.4208 34.4316 12.8247 34.3591 13.1998L34.3374 13.2864C34.2504 13.6614 34.1344 13.9932 33.9967 14.3466C33.8373 14.7 33.6344 15.0535 33.4314 15.3636C33.2068 15.6738 32.9531 15.9551 32.685 16.2219V16.2436C32.4096 16.5104 32.098 16.734 31.7791 16.9504C31.4385 17.174 31.0978 17.3471 30.7355 17.5058C30.3731 17.6573 29.989 17.7727 29.5832 17.8592C29.1701 17.9241 28.7642 17.9674 28.3584 17.9674H24.6406V23.8674C24.6406 24.329 24.2565 24.7041 23.8071 24.7041ZM9.76201 5.7058C15.1757 5.7058 19.5458 9.99015 19.5458 15.2771C19.5458 20.5568 15.1757 24.8195 9.76201 24.8195C4.37008 24.8195 0 20.5568 0 15.2771C0 9.99015 4.37008 5.7058 9.76201 5.7058ZM9.76201 8.86496C13.3856 8.86496 16.328 11.7356 16.328 15.2771C16.328 18.8329 13.3856 21.682 9.76201 21.682C6.1384 21.682 3.21777 18.8329 3.21777 15.2771C3.21777 11.7356 6.1384 8.86496 9.76201 8.86496ZM12.1174 3.78721C12.0521 3.85213 11.9579 3.91704 11.8492 4.00359C11.7333 4.07572 11.6173 4.16227 11.5086 4.22719L11.4361 4.24883C11.3057 4.31374 11.1462 4.37866 10.9868 4.40029L10.8926 4.42914C10.7621 4.45078 10.6027 4.47242 10.4433 4.47242H9.92145C9.44313 4.47242 9.08077 4.09736 9.08077 3.62853C9.08077 3.4987 9.10251 3.36166 9.17499 3.23183C9.53735 2.61154 9.87797 2.06337 10.2838 1.46472C10.4433 1.24113 10.6244 1.00311 10.7839 0.80115C10.8708 0.692959 10.9868 0.584769 11.1245 0.491003C11.2332 0.404451 11.3709 0.317898 11.5521 0.231346C11.7115 0.159218 11.8927 0.094304 12.0739 0.0510277C12.2551 0.00775146 12.4362 0.00775146 12.6392 0.00775146H13.5451C14.0234 0.00775146 14.3857 0.361174 14.3857 0.822788C14.3857 1.02474 14.3133 1.21949 14.1538 1.37817L12.1826 3.69345L12.1174 3.78721ZM84.0751 6.03758H85.3723C85.7347 6.03758 86.068 6.28281 86.1623 6.6146C88.6988 12.2477 91.2136 17.8809 93.7284 23.5356C93.9313 23.954 93.7284 24.4444 93.2935 24.6175C93.1848 24.6608 93.0689 24.6824 92.9602 24.6824L92.2789 24.7041C92.076 24.7041 91.8441 24.6608 91.6194 24.5959C91.4165 24.5526 91.2136 24.4444 91.0107 24.329L90.9672 24.2857C90.8077 24.1776 90.6483 24.0477 90.5323 23.9107C90.3729 23.7592 90.2642 23.5573 90.17 23.3625L88.9742 20.6866H80.4732L79.2991 23.3625C79.2049 23.5573 79.0962 23.7376 78.9368 23.9107C78.7991 24.0694 78.6179 24.2208 78.4367 24.329L78.3715 24.3795C78.1903 24.4877 78.0091 24.5526 77.8279 24.6175C77.6033 24.6608 77.3931 24.7041 77.1684 24.7041H76.4872C76.0161 24.7041 75.632 24.329 75.632 23.8674C75.632 23.7376 75.6755 23.6005 75.7407 23.4923L83.3068 6.54968C83.4445 6.23954 83.7634 6.03758 84.0751 6.03758ZM81.8792 17.5274H87.5682L84.7128 11.1875L81.8792 17.5274ZM60.7028 15.3636C60.7028 15.6738 60.7245 15.9551 60.768 16.2219C60.8187 16.5104 60.8622 16.7773 60.9492 17.0442C61.0216 17.3255 61.1303 17.5923 61.2246 17.8376C61.3405 18.1045 61.471 18.3425 61.6087 18.5661V18.5877C61.7464 18.8329 61.9058 19.071 62.087 19.2729C62.2464 19.4965 62.4276 19.6912 62.6305 19.8932C62.8334 20.0663 63.0364 20.2683 63.261 20.4197C63.4857 20.5784 63.7176 20.7299 63.964 20.8886C64.2104 21.0184 64.4641 21.1482 64.7105 21.2636H64.754C64.9859 21.3718 65.254 21.4584 65.5077 21.5233C65.7976 21.5954 66.073 21.6603 66.3628 21.7036C66.6382 21.7252 66.9354 21.7469 67.247 21.7469C67.6094 21.7469 67.95 21.7252 68.2689 21.682C68.5877 21.6387 68.8994 21.5449 69.2182 21.4584C69.5589 21.3502 69.856 21.2203 70.1459 21.0833C70.443 20.9535 70.7112 20.7948 70.9866 20.6217C71.0735 20.5568 71.1677 20.5063 71.2837 20.463C71.3707 20.4197 71.4866 20.3765 71.5736 20.3548L71.6171 20.3332C71.7113 20.3115 71.7983 20.2899 71.8925 20.2899C72.0084 20.2683 72.1171 20.2683 72.2331 20.2683C72.3925 20.2683 72.5737 20.2683 72.7042 20.3115C72.8853 20.3332 73.0448 20.3765 73.1825 20.4414C73.3202 20.5063 73.4579 20.5784 73.5666 20.665L73.6173 20.6866C73.726 20.7732 73.8202 20.8381 73.9072 20.9318L74.0232 21.0617C74.3638 21.3718 74.3638 21.8983 74.0232 22.2085V22.2301C73.5666 22.6557 73.0955 23.0091 72.5955 23.3409L72.523 23.3625C72.0302 23.6727 71.5084 23.954 70.9648 24.1776C70.3778 24.4228 69.7835 24.5959 69.153 24.7041C68.537 24.8195 67.9065 24.8844 67.247 24.8844C66.5947 24.8844 65.9352 24.8195 65.2975 24.7041C64.667 24.5743 64.0582 24.3795 63.4639 24.1343C62.8552 23.889 62.3116 23.5789 61.8116 23.2471C61.2898 22.9153 60.8187 22.5403 60.3839 22.1003H60.3621C59.9346 21.6603 59.5287 21.1915 59.1881 20.7082C58.8475 20.2034 58.5503 19.6696 58.2822 19.0926C58.0285 18.5012 57.8474 17.9025 57.7097 17.2606C57.5792 16.6403 57.5067 16.0056 57.5067 15.3636C57.5067 14.7217 57.5792 14.0798 57.7097 13.4595C57.8474 12.8247 58.0285 12.2261 58.2822 11.6491C58.5503 11.0793 58.8475 10.5455 59.1881 10.0406L59.2316 9.99015C59.5722 9.5069 59.9563 9.04528 60.3621 8.64858L60.4346 8.59809C60.8622 8.17976 61.3115 7.8047 61.8116 7.49455C62.3116 7.16276 62.8552 6.85262 63.4639 6.6146C64.0582 6.34773 64.667 6.14577 65.2975 6.01594H65.37C65.9787 5.90775 66.6165 5.84284 67.247 5.84284C67.9065 5.84284 68.537 5.90775 69.1748 6.01594C69.7835 6.12413 70.3995 6.32609 70.9648 6.57132C71.5301 6.7877 72.0737 7.07621 72.5955 7.408C73.0955 7.73978 73.5666 8.11484 74.0232 8.53318C74.342 8.84333 74.3638 9.37707 74.0232 9.68721L73.9072 9.7954C73.6825 10.019 73.4361 10.1705 73.1607 10.3003C73.023 10.3724 72.8636 10.4157 72.7042 10.4373C72.552 10.4806 72.3925 10.5022 72.2331 10.5022C72.0084 10.5022 71.7765 10.459 71.5736 10.3941H71.5301C71.3272 10.3219 71.146 10.2354 70.9866 10.1272L70.9431 10.1056C70.6894 9.92523 70.4213 9.77377 70.1459 9.63672C69.856 9.5069 69.5371 9.3987 69.24 9.2833C68.9501 9.19675 68.6095 9.13183 68.2906 9.06692C67.95 9.02364 67.6094 9.00201 67.247 9.00201C66.9354 9.00201 66.6382 9.02364 66.3628 9.04528C66.073 9.08856 65.7976 9.15347 65.5077 9.21839C65.2323 9.2833 64.9859 9.37707 64.7105 9.48526C64.4641 9.59345 64.2104 9.73049 63.964 9.86032L63.9205 9.88196C63.6959 10.019 63.4639 10.1705 63.261 10.3219C63.0364 10.4806 62.8334 10.6754 62.6305 10.8557C62.4276 11.0504 62.2464 11.2524 62.087 11.476C61.9058 11.6707 61.7464 11.9159 61.6087 12.1612L61.5869 12.1828C61.4492 12.3992 61.3405 12.6444 61.2246 12.8897C61.1303 13.1277 61.0216 13.3945 60.9492 13.6831L60.9274 13.7047C60.8622 13.9716 60.8187 14.2384 60.768 14.4981C60.7245 14.765 60.7028 15.0535 60.7028 15.3636ZM53.9773 24.7041H52.4554C51.9843 24.7041 51.622 24.329 51.622 23.8674V6.88147C51.622 6.41264 51.9843 6.03758 52.4554 6.03758H53.9773C54.4484 6.03758 54.8398 6.41264 54.8398 6.88147V23.8674C54.8398 24.329 54.4484 24.7041 53.9773 24.7041ZM34.9751 8.36007V6.88147C34.9751 6.41264 35.3375 6.03758 35.8085 6.03758H48.8101C49.2884 6.03758 49.6725 6.41264 49.6725 6.88147V8.36007C49.6725 8.82169 49.2884 9.19675 48.8101 9.19675H43.9182V23.8674C43.9182 24.329 43.5341 24.7041 43.0558 24.7041H41.5411C41.0628 24.7041 40.7004 24.329 40.7004 23.8674V9.19675H35.8085C35.3375 9.19675 34.9751 8.82169 34.9751 8.36007ZM28.3584 14.8515C28.7642 14.8515 29.1266 14.7866 29.489 14.6351C29.6701 14.5702 29.8296 14.4765 29.989 14.3899C30.1267 14.2817 30.2862 14.1663 30.4166 14.0365L30.4673 13.9932C30.576 13.885 30.6703 13.748 30.7572 13.6181C30.8732 13.4811 30.9601 13.308 31.0326 13.1277C31.0978 12.9762 31.1703 12.7959 31.1921 12.6011C31.2355 12.4208 31.2573 12.2261 31.2573 12.0241C31.2573 11.6274 31.1921 11.2524 31.0326 10.9206C30.9601 10.7475 30.8732 10.5672 30.7572 10.4157C30.6703 10.2787 30.5543 10.1488 30.4166 10.019C30.2862 9.88196 30.1485 9.77377 29.989 9.65836C29.8296 9.57181 29.6701 9.48526 29.489 9.3987C29.3078 9.33379 29.1266 9.2833 28.9454 9.24003C28.7642 9.19675 28.5613 9.19675 28.3584 9.19675H24.6406V14.8515H28.3584Z" fill="#FFFAFA"/>
</svg>
